<?xml version="1.0" encoding="UTF-8" standalone="no"?>
<!-- Created with Inkscape (http://www.inkscape.org/) -->

<svg
   xmlns:dc="http://purl.org/dc/elements/1.1/"
   xmlns:cc="http://creativecommons.org/ns#"
   xmlns:rdf="http://www.w3.org/1999/02/22-rdf-syntax-ns#"
   xmlns:svg="http://www.w3.org/2000/svg"
   xmlns="http://www.w3.org/2000/svg"
   xmlns:sodipodi="http://sodipodi.sourceforge.net/DTD/sodipodi-0.dtd"
   xmlns:inkscape="http://www.inkscape.org/namespaces/inkscape"
   width="100mm"
   height="65mm"
   viewBox="0 0 100 65"
   version="1.1"
   id="svg2628"
   inkscape:version="0.92.5 (2060ec1f9f, 2020-04-08)"
   sodipodi:docname="logo.svg"
   inkscape:export-filename="/home/adnan/Projects/jekjob/JekjobApp/assets/logo2.png"
   inkscape:export-xdpi="96"
   inkscape:export-ydpi="96">
  <defs
     id="defs2622" />
  <sodipodi:namedview
     id="base"
     pagecolor="#ffffff"
     bordercolor="#666666"
     borderopacity="1.0"
     inkscape:pageopacity="0.0"
     inkscape:pageshadow="2"
     inkscape:zoom="0.52042929"
     inkscape:cx="-474.80708"
     inkscape:cy="119.37547"
     inkscape:document-units="mm"
     inkscape:current-layer="layer1"
     showgrid="false"
     inkscape:window-width="1366"
     inkscape:window-height="683"
     inkscape:window-x="0"
     inkscape:window-y="24"
     inkscape:window-maximized="1" />
  <metadata
     id="metadata2625">
    <rdf:RDF>
      <cc:Work
         rdf:about="">
        <dc:format>image/svg+xml</dc:format>
        <dc:type
           rdf:resource="http://purl.org/dc/dcmitype/StillImage" />
        <dc:title></dc:title>
      </cc:Work>
    </rdf:RDF>
  </metadata>
  <g
     inkscape:label="Calque 1"
     inkscape:groupmode="layer"
     id="layer1"
     transform="translate(0,-232)">
    <path
       style="opacity:1;fill:#ff4e00;fill-opacity:0.9466019;stroke-width:0.32524729"
       d="m 89.880315,280.18706 c -0.178657,-4.28357 -0.503061,-5.18396 -2.437289,-6.76452 -1.641419,-1.3413 -4.067627,-1.94269 -7.837404,-1.94269 h -3.141633 v -4.64268 -4.64266 l 3.287114,0.10762 c 7.469659,0.24465 11.091026,1.38036 14.919036,4.6788 3.529643,3.04134 5.059872,6.95424 5.532681,14.14741 l 0.19077,2.9024 h -5.176483 -5.176471 z"
       id="path838"
       inkscape:connector-curvature="0" />
    <path
       style="opacity:1;fill:#ff4e00;fill-opacity:0.9466019;stroke-width:0.32524729"
       d="m 62.858375,275.95112 c 0.218953,-11.21867 0.504607,-13.82894 1.774222,-16.21254 1.497452,-2.81132 4.068242,-5.56776 6.72703,-7.21281 4.083799,-2.52674 2.600588,-2.34209 25.079926,-3.12259 l 3.624267,-0.12589 v 4.82577 4.82576 h -9.423341 c -5.431411,0 -10.137231,0.14246 -11.108562,0.33638 -1.953146,0.38984 -4.161531,1.76845 -5.076893,3.16934 -0.859226,1.31494 -0.967172,2.43923 -1.22248,12.7321 l -0.219868,8.86414 H 67.85667 62.700686 Z"
       id="path840"
       inkscape:connector-curvature="0" />
    <path
       style="opacity:1;fill:#ff4e00;fill-opacity:0.9466019;stroke-width:0.32524729"
       d="m 38.421492,283.69321 c -2.943363,-0.35539 -5.059921,-1.05969 -7.365874,-2.45116 -3.849272,-2.32272 -7.238816,-6.63412 -8.168187,-10.38975 -0.517036,-2.08936 -0.438785,-6.51073 0.152635,-8.62396 0.756277,-2.70231 2.326994,-5.02809 5.201319,-7.70169 4.368034,-4.063 7.205262,-4.90667 15.519998,-4.61499 4.788069,0.16797 7.095158,0.70502 9.777068,2.27596 3.389724,1.98555 5.370104,5.26799 5.644067,9.35492 0.208034,3.10349 -0.325718,4.34821 -2.760174,6.43667 -2.662477,2.2841 -5.433362,3.06666 -12.026541,3.39661 l -4.005825,0.20046 v -4.55066 -4.55067 l 3.455776,-0.18213 c 1.900671,-0.10019 3.872941,-0.32975 4.382821,-0.51017 3.345221,-1.1837 -3.584794,-3.58806 -8.101823,-2.81092 -7.214676,1.24127 -10.007232,7.40542 -5.779045,12.75638 1.587004,2.00842 3.907726,2.90841 8.047277,3.12069 l 3.38924,0.1738 v 4.5041 4.50411 l -2.612836,-0.0398 c -1.437062,-0.0218 -3.57451,-0.1559 -4.74989,-0.29782 z"
       id="path842"
       inkscape:connector-curvature="0" />
    <path
       style="opacity:1;fill:#ff4e00;fill-opacity:0.9466019;stroke-width:0.32524729"
       d="m 0.60741496,292.18499 v -4.67111 l 1.99761134,-0.36575 c 2.5399754,-0.46508 3.8042622,-1.18702 4.9845563,-2.84634 l 0.9406299,-1.32238 0.2168422,-11.63304 c 0.1192598,-6.39818 0.233049,-13.78632 0.252858,-16.41809 l 0.036004,-4.78506 h 5.1121453 5.112148 l -0.226973,16.2378 c -0.158758,11.35779 -0.3583,16.81598 -0.663955,18.16169 -1.373489,6.04705 -8.122602,11.01472 -16.4975987,12.14302 l -1.26427852,0.17033 z"
       id="path844"
       inkscape:connector-curvature="0" />
    <path
       style="opacity:1;fill:#4d10eb;fill-opacity:0.83529412;stroke-width:0.32524729"
       d="m 62.978366,239.80564 v -6.43241 h 5.057111 5.05711 v 6.43241 6.43239 h -5.05711 -5.057111 z"
       id="path846"
       inkscape:connector-curvature="0" />
    <path
       style="opacity:1;fill:#4d10eb;fill-opacity:0.83529412;stroke-width:0.59166259"
       d="m 89.884853,280.2602 c -0.01564,-6.20425 -2.141342,-8.27055 -9.063581,-8.81066 l -4.41992,-0.34487 v -4.48354 c 0,-2.46595 0.206986,-4.48144 0.459971,-4.47885 3.552492,0.0362 11.82261,1.41277 13.623077,2.26765 5.295555,2.51434 8.144901,6.69101 9.200256,13.486 0.995434,6.40919 1.363924,5.93172 -4.577737,5.93172 h -5.213025 l -0.009,-3.56745 z"
       id="path3194"
       inkscape:connector-curvature="0" />
    <path
       style="opacity:1;fill:#4d10eb;fill-opacity:0.83529412;stroke-width:0.59166259"
       d="m 63.076443,273.30155 c 0.394241,-11.64424 0.916324,-13.5891 4.734337,-17.63618 3.69707,-3.9189 6.588095,-5.04231 14.307716,-5.55976 3.770496,-0.25276 9.270312,-0.47437 12.221805,-0.49249 l 5.366349,-0.033 v 4.50878 4.50876 l -10.272729,0.20027 c -9.415572,0.18354 -10.460108,0.30868 -12.518352,1.49987 -2.867052,1.65928 -3.580704,3.61841 -3.580704,9.82984 0,2.7312 -0.178487,6.931 -0.396642,9.33289 l -0.396642,4.36705 h -4.910762 -4.910761 z"
       id="path3200"
       inkscape:connector-curvature="0" />
  </g>
</svg>
